<svg xmlns="http://www.w3.org/2000/svg" viewBox="0 0 1920 1080" width="1920" height="1080" role="img" aria-label="FOTO DO AMBIENTE — HERO">
  <defs>
    <linearGradient id="bg" x1="0" y1="0" x2="1" y2="1">
      <stop offset="0" stop-color="#17171C"/>
      <stop offset=".55" stop-color="#101014"/>
      <stop offset="1" stop-color="#08080A"/>
    </linearGradient>
    <radialGradient id="glow" cx="72%" cy="40%" r="58%">
      <stop offset="0" stop-color="#FF7A00" stop-opacity=".2"/>
      <stop offset="1" stop-color="#FF7A00" stop-opacity="0"/>
    </radialGradient>
    <pattern id="grid" width="64" height="64" patternUnits="userSpaceOnUse">
      <path d="M64 0H0v64" fill="none" stroke="#ffffff" stroke-opacity=".05" stroke-width="1"/>
    </pattern>
  </defs>
  <rect width="1920" height="1080" fill="url(#bg)"/>
  <rect width="1920" height="1080" fill="url(#grid)"/>
  <rect width="1920" height="1080" fill="url(#glow)"/>
  <rect x="1.5" y="1.5" width="1917" height="1077" fill="none" stroke="#ffffff" stroke-opacity=".10" stroke-width="2" stroke-dasharray="16 12"/>
  <g transform="translate(1480, 760)">
    <g fill="none" stroke="#FF7A00" stroke-opacity=".9" stroke-width="2.6" stroke-linecap="round" stroke-linejoin="round">
      <path d="M-32 -14h12l5-7h30l5 7h12a7 7 0 0 1 7 7v30a7 7 0 0 1-7 7h-64a7 7 0 0 1-7-7v-30a7 7 0 0 1 7-7z"/>
      <circle cx="0" cy="12" r="13"/>
    </g>
    <text x="0" y="92" text-anchor="middle" font-family="Segoe UI, Roboto, Helvetica, Arial, sans-serif" font-size="28" font-weight="700" letter-spacing="1.5" fill="#F5F5F7">FOTO DO AMBIENTE — HERO</text>
    <text x="0" y="126" text-anchor="middle" font-family="Segoe UI, Roboto, Helvetica, Arial, sans-serif" font-size="17" font-weight="500" fill="#9A9AA4">Substituir por assets/img/hero.jpg (1920x1080)</text>
    <g transform="translate(-104, 156)">
      <rect x="0" y="0" width="208" height="30" rx="15" fill="#FF7A00"/>
      <text x="104" y="20" text-anchor="middle" font-family="Segoe UI, Roboto, Helvetica, Arial, sans-serif" font-size="12" font-weight="800" letter-spacing="1.3" fill="#0A0A0B">IMAGEM PROVISÓRIA</text>
    </g>
  </g>
</svg>
